<?xml version="1.0"?>
<svg xmlns="http://www.w3.org/2000/svg" height="512px" viewBox="0 0 60 60" width="512px"><g><g id="Page-1" fill="none" fill-rule="evenodd"><g id="034---Give-Rental-Car" fill="rgb(0,0,0)" fill-rule="nonzero"><path id="Shape" d="m58 26.18v-5.18c0-1.6568542-1.3431458-3-3-3h-1.38l-3.17-6.34c-.5087974-1.0191576-1.5508986-1.66223863-2.69-1.66h-15.52c-1.1391014-.00223863-2.1812026.6408424-2.69 1.66l-3.17 6.34h-5.38c-1.6568542 0-3 1.3431458-3 3v5.18c-1.1957287.4227483-1.9964356 1.5517451-2 2.82 0 1.6568542 1.3431458 3 3 3h3.21c.6726816 2.3639856 2.83217 3.9947093 5.29 3.9947093s4.6173184-1.6307237 5.29-3.9947093h11.42c.6726816 2.3639856 2.83217 3.9947093 5.29 3.9947093s4.6173184-1.6307237 5.29-3.9947093h2.21c1.6568542 0 3-1.3431458 3-3-.0035644-1.2682549-.8042713-2.3972517-2-2.82zm-2-5.18v5h-3.35c-1.8882411-1.333707-4.4117589-1.333707-6.3 0h-5.35v-3c0-.5522847-.4477153-1-1-1s-1 .4477153-1 1v3h-8.35c-1.8882411-1.333707-4.4117589-1.333707-6.3 0h-4.35v-2h2c1.6568542 0 3-1.3431458 3-3v-1h30c.5522847 0 1 .4477153 1 1zm-23.61 7h12.22c-.3363971.6185951-.5439088 1.2989615-.61 2h-11c-.0660912-.7010385-.2736029-1.3814049-.61-2zm16.27-15.45 2.72 5.45h-10.38v-6.0000243l6.76.0000243c.3801569-.0026457.7289345.2104962.9.55zm-17.32 0c.1710655-.3395038.5198431-.5526457.9-.55l6.76-.0000243v6.0000243h-10.38zm-10.34 7.45h2v1c0 .5522847-.4477153 1-1 1h-2v-1c0-.5522847.4477153-1 1-1zm-3 9c.0037358-.2687063.1154643-.5246007.31-.71.1792338-.1890372.4295353-.2942364.69-.29h3.61c-.3363971.6185951-.5439088 1.2989615-.61 2h-3c-.5522847 0-1-.4477153-1-1zm9.5 5c-1.4156179 0-2.6918449-.8527476-3.2335784-2.160608s-.2422883-2.8132727.7587047-3.8142657 2.5064053-1.3004382 3.8142657-.7587047 2.160608 1.8179605 2.160608 3.2335784c0 1.9329966-1.5670034 3.5-3.5 3.5zm22 0c-1.9329966 0-3.5-1.5670034-3.5-3.5s1.5670034-3.5 3.5-3.5 3.5 1.5670034 3.5 3.5-1.5670034 3.5-3.5 3.5zm8.19-4.29c-.1792338.1890372-.4295353.2942364-.69.29h-2c-.0567748-.6989046-.2540479-1.3791568-.58-2h2.58c.5522847 0 1 .4477153 1 1-.0037358.2687063-.1154643.5246007-.31.71z" data-original="#000000" class="active-path" data-old_color="#000000" fill="#D4D3D3CC"/><path id="Shape" d="m33 24h2c.5522847 0 1-.4477153 1-1s-.4477153-1-1-1h-2c-.5522847 0-1 .4477153-1 1s.4477153 1 1 1z" data-original="#000000" class="active-path" data-old_color="#000000" fill="#D4D3D3CC"/><path id="Shape" d="m44 24h2c.5522847 0 1-.4477153 1-1s-.4477153-1-1-1h-2c-.5522847 0-1 .4477153-1 1s.4477153 1 1 1z" data-original="#000000" class="active-path" data-old_color="#000000" fill="#D4D3D3CC"/><path id="Shape" d="m55.07 39.68-18.51 6.17c-.322445.1062216-.6605805.1569419-1 .15h-.56c.4753073-1.3021661.3394286-2.7490908-.37-3.94l-.09-.15c-1.0786504-1.7954291-3.0155029-2.8984116-5.11-2.91h-5.23c-1.8459227-.0016652-3.636742-.629157-5.08-1.78-1.7943586-1.4345656-4.0226767-2.2172976-6.32-2.22h-2c-.4202628-1.1888634-1.53909808-1.9880314-2.8-2h-5c-1.65685425 0-3 1.3431458-3 3v21c0 1.6568542 1.34314575 3 3 3h5c.84808319-.0045533 1.65461528-.3678561 2.22-1h25.08c1.4683127.0031584 2.9085977-.4019217 4.16-1.17l18.74-11.41c.9009096-.5453756 1.5292916-1.4461776 1.73-2.48.2540461-1.3063199-.2051979-2.6492363-1.2059563-3.5264442-1.0007583-.877208-2.3922663-1.1565557-3.6540437-.7335558zm-47.07 18.32h-5c-.55228475 0-1-.4477153-1-1v-21c0-.5522847.44771525-1 1-1h5c.55228475 0 1 .4477153 1 1v21c0 .5522847-.44771525 1-1 1zm50-14.44c-.0923209.4844434-.3870042.9064589-.81 1.16l-18.77 11.41c-.9405776.5705402-2.0199091.8715076-3.12.87l-24.3.0000056v-20.0000056h1.8c1.8459227.0016652 3.636742.629157 5.08 1.78 1.7943586 1.4345656 4.0226767 2.2172976 6.32 2.22h5.23c1.4046545-.0004352 2.706603.7359438 3.43 1.94l.09.15c.5465163.9102246.4872087 2.0607922-.15 2.91h-6.07c-1.975323-.0004431-3.9065313.5841388-5.55 1.68l-.73.49c-.4021248.3239123-.4915129.9007244-.206288 1.3311547s.8512619.5729246 1.306288.3288453l.74-.49c1.3152215-.8752757 2.8601542-1.3415392 4.44-1.34h8.88c.5372144-.0012238 1.0707209-.089016 1.58-.26l18.52-6.17c.7127064-.2329111 1.4944632.0169287 1.94.62.3088544.3847852.4364485.884225.35 1.37z" data-original="#000000" class="active-path" data-old_color="#000000" fill="#D4D3D3CC"/><path id="Shape" d="m15 13.79v-2.6c1.8545042-1.070697 2.9978036-3.04860483 3-5.19v-3c0-1.65685425-1.3431458-3-3-3h-8c-1.65685425 0-3 1.34314575-3 3v3c.00219645 2.14139517 1.14549576 4.119303 3 5.19v13.14c0 .4327404.14035574.8538077.4 1.2l2 2.67c.37770876.5036117.9704854.8 1.6.8s1.2222912-.2963883 1.6-.8l2-2.67c.2596443-.3461923.4-.7672596.4-1.2v-2.12c-.0003501-.3976907-.158615-.7789653-.44-1.06l-1.15-1.15.94-.94c.2833721-.2799339.442861-.6616751.442861-1.06s-.1594889-.7800661-.442861-1.06l-.94-.94 1.15-1.15c.281385-.2810347.4396499-.6623093.44-1.06zm-9-10.79c0-.55228475.44771525-1 1-1h8c.5522847 0 1 .44771525 1 1v3c0 2.209139-1.790861 4-4 4h-2c-2.209139 0-4-1.790861-4-4zm5.65 14.06.94.94-.94.94c-.2833721.2799339-.442861.6616751-.442861 1.06s.1594889.7800661.442861 1.06l1.35 1.35v1.92l-2 2.67-2-2.67v-12.42c.3305842.055195.66487297.085281 1 .09h2c.335127-.004719.6694158-.034805 1-.09v1.68l-1.35 1.35c-.2833721.2799339-.442861.6616751-.442861 1.06s.1594889.7800661.442861 1.06z" data-original="#000000" class="active-path" data-old_color="#000000" fill="#D4D3D3CC"/><path id="Shape" d="m10 6h2c.5522847 0 1-.44771525 1-1s-.4477153-1-1-1h-2c-.55228475 0-1 .44771525-1 1s.44771525 1 1 1z" data-original="#000000" class="active-path" data-old_color="#000000" fill="#D4D3D3CC"/></g></g></g> </svg>
