<?xml version="1.0"?>
<svg xmlns="http://www.w3.org/2000/svg" xmlns:xlink="http://www.w3.org/1999/xlink" version="1.1" id="Capa_1" x="0px" y="0px" viewBox="0 0 483.547 483.547" style="enable-background:new 0 0 483.547 483.547;" xml:space="preserve" width="512px" height="512px" class=""><g><g>
	<path d="M351.222,97.535c26.891,0,48.768-21.877,48.768-48.768C399.99,21.877,378.113,0,351.222,0   c-26.89,0-48.767,21.877-48.767,48.768C302.456,75.658,324.333,97.535,351.222,97.535z M351.222,8.5   c22.204,0,40.268,18.064,40.268,40.268c0,22.204-18.063,40.268-40.268,40.268c-22.203,0-40.267-18.064-40.267-40.268   C310.956,26.564,329.019,8.5,351.222,8.5z" data-original="#000000" class="active-path" data-old_color="#000000" fill="#DEDEDECC"/>
	<path d="M127.137,97.535c26.891,0,48.768-21.877,48.768-48.768C175.904,21.877,154.027,0,127.137,0   C100.247,0,78.37,21.877,78.37,48.768C78.37,75.658,100.247,97.535,127.137,97.535z M127.137,8.5   c22.204,0,40.268,18.064,40.268,40.268c0,22.204-18.063,40.268-40.268,40.268c-22.203,0-40.267-18.064-40.267-40.268   C86.87,26.564,104.933,8.5,127.137,8.5z" data-original="#000000" class="active-path" data-old_color="#000000" fill="#DEDEDECC"/>
	<path d="M446.659,235.163l-47.414-77.546v-8.632c0-26.48-21.543-48.023-48.022-48.023c-26.48,0-48.023,21.543-48.023,48.023v0.009   l-68.271,41.743c-0.037,0.023-0.074,0.048-0.112,0.072l-59.698-43.463c-0.869-25.723-22.051-46.383-47.981-46.383   c-26.48,0-48.023,21.543-48.023,48.023v14.92l-37.498,76.092c-5.961,12.096-0.969,26.788,11.129,32.751   c3.414,1.684,7.092,2.533,10.79,2.533c2.648,0,5.309-0.436,7.89-1.313c2.851-0.969,5.434-2.442,7.689-4.302v5.438   c0,3.712,0.432,7.357,1.249,10.88L34.659,438.608c-2.474,8.26-1.583,16.989,2.509,24.578c4.092,7.589,10.893,13.131,19.153,15.605   c3.065,0.918,6.194,1.373,9.307,1.373c5.275,0,10.5-1.307,15.274-3.88c7.589-4.091,13.131-10.894,15.604-19.154l5.683-18.978   l0,13.116c0,17.799,14.48,32.28,32.279,32.28c17.8,0,32.281-14.481,32.281-32.28V302.23c5.503-8.011,8.409-17.357,8.409-27.127   v-67.219l36.861,26.837c4.211,3.065,9.183,4.686,14.378,4.686c5.081,0,9.984-1.604,14.058-4.456   c2.365,0.731,4.809,1.095,7.247,1.095c4.441,0,8.862-1.204,12.741-3.576l42.754-26.141v68.774c0,13.593,5.718,26.422,15.741,35.528   l0.003,140.635c0,17.799,14.48,32.28,32.279,32.28c17.8,0,32.281-14.481,32.281-32.28V310.635   c10.024-9.105,15.742-21.936,15.742-35.532l0-23.711l5.68,9.29c4.606,7.533,12.661,11.691,20.905,11.691   c4.347,0,8.747-1.157,12.72-3.586c5.574-3.407,9.487-8.782,11.018-15.133C451.1,247.305,450.067,240.737,446.659,235.163z    M77.869,257.863c-1.884,3.824-5.145,6.685-9.181,8.057c-4.034,1.371-8.363,1.088-12.187-0.796   c-7.894-3.891-11.151-13.477-7.262-21.369l29.873-60.619v72.203L77.869,257.863z M88.364,454.691   c-1.822,6.085-5.905,11.096-11.496,14.11c-5.59,3.014-12.021,3.67-18.108,1.847c-6.086-1.822-11.097-5.905-14.11-11.496   c-3.015-5.591-3.671-12.021-1.849-18.106l42.585-142.21c3.977,6.995,9.71,12.98,16.801,17.294l0.002,92.393L88.364,454.691z    M158.251,451.267c0,13.112-10.668,23.78-23.781,23.78c-0.509,0-1.013-0.022-1.514-0.053V374.406c0-2.347-1.902-4.25-4.25-4.25   c-2.348,0-4.25,1.903-4.25,4.25v98.422c-8.121-3.787-13.766-12.025-13.766-21.561l-0.004-161.648   c0-13.114,10.669-23.782,23.783-23.782c13.113,0.001,23.781,10.669,23.781,23.782V451.267z M166.66,275.103   c0,2.521-0.239,5.005-0.701,7.434c-3.237-14.404-16.122-25.201-31.489-25.202c-17.801,0-32.283,14.482-32.283,32.282l0,16.121   c-9.125-7.428-14.574-18.609-14.574-30.636V148.985c0-21.793,17.73-39.523,39.523-39.523c18.885,0,34.71,13.318,38.599,31.053   l-19.132-13.929c-4.213-3.067-9.186-4.688-14.381-4.688c-7.802,0-15.199,3.762-19.787,10.063   c-3.846,5.282-5.405,11.745-4.39,18.198c1.015,6.454,4.483,12.126,9.765,15.972l48.85,35.565V275.103z M217.025,227.849   l-94.212-68.591c-3.446-2.509-5.709-6.21-6.371-10.42c-0.662-4.211,0.354-8.428,2.864-11.874c2.994-4.112,7.822-6.566,12.916-6.566   c3.386,0,6.628,1.058,9.378,3.06l94.208,68.587c3.447,2.51,5.71,6.211,6.373,10.421c0.663,4.21-0.354,8.427-2.863,11.873   c-2.995,4.112-7.824,6.568-12.919,6.568C223.014,230.907,219.772,229.85,217.025,227.849z M256.012,225.218   c-2.622,1.603-5.624,2.38-8.63,2.319c2.963-4.915,4.099-10.656,3.196-16.393c-0.924-5.872-3.885-11.093-8.39-14.884l96.596-59.061   c7.508-4.591,17.35-2.216,21.94,5.29c4.589,7.508,2.215,17.35-5.292,21.94L256.012,225.218z M375.004,451.267   c0,8.84-4.853,16.564-12.031,20.662v-97.522c0-2.347-1.902-4.25-4.25-4.25c-2.348,0-4.25,1.903-4.25,4.25v100.413   c-1.063,0.146-2.147,0.228-3.25,0.228c-13.112,0-23.779-10.668-23.779-23.78l-0.004-161.648c0-13.114,10.669-23.782,23.783-23.782   c13.113,0.001,23.781,10.669,23.781,23.782V451.267z M383.504,297.891v-8.273c0-17.799-14.481-32.281-32.281-32.282   c-17.801,0-32.283,14.482-32.283,32.282l0,8.268c-4.667-6.599-7.241-14.519-7.241-22.783v-73.971l48.167-29.451   c11.506-7.034,15.145-22.118,8.11-33.625c-7.037-11.506-22.122-15.145-33.626-8.109l-22.27,13.617   c2.652-19.236,19.189-34.102,39.142-34.102c21.793,0,39.522,17.73,39.522,39.523l0.001,126.118   C390.746,283.37,388.171,291.291,383.504,297.891z M441.306,251.663c-0.999,4.144-3.553,7.65-7.189,9.873   c-7.507,4.59-17.35,2.217-21.94-5.288l-12.932-21.151l0-61.186l40.162,65.685C441.631,243.234,442.306,247.519,441.306,251.663z" data-original="#000000" class="active-path" data-old_color="#000000" fill="#DEDEDECC"/>
	<path d="M128.706,305.659c-2.348,0-4.25,1.903-4.25,4.25v31.498c0,2.347,1.902,4.25,4.25,4.25c2.348,0,4.25-1.903,4.25-4.25   v-31.498C132.956,307.562,131.054,305.659,128.706,305.659z" data-original="#000000" class="active-path" data-old_color="#000000" fill="#DEDEDECC"/>
	<path d="M358.722,305.659c-2.348,0-4.25,1.903-4.25,4.25v31.498c0,2.347,1.902,4.25,4.25,4.25c2.348,0,4.25-1.903,4.25-4.25   v-31.498C362.972,307.562,361.07,305.659,358.722,305.659z" data-original="#000000" class="active-path" data-old_color="#000000" fill="#DEDEDECC"/>
</g></g> </svg>
