<?xml version="1.0"?>
<svg xmlns="http://www.w3.org/2000/svg" id="election_x5F_paper" enable-background="new 0 0 300 300" height="512px" viewBox="0 0 300 300" width="512px"><g><g><path d="m224.285 127.918-22.285 22.284v-106.202c0-2.209-1.789-4-4-4h-148c-2.211 0-4 1.791-4 4v212c0 2.209 1.789 4 4 4h148c2.211 0 4-1.791 4-4v-66.202l42.082-42.081c2.645-2.645 4.102-6.16 4.102-9.9s-1.457-7.256-4.102-9.9c-5.461-5.454-14.336-5.456-19.797.001zm-52.328 80.609-8.485-8.486 59.398-59.397 8.484 8.485zm-12.393-1.081 4.989 4.989-7.483 2.494zm34.436 44.554h-140v-204h140v110.202l-39.012 39.01c-.438.439-.77.975-.965 1.562l-7.07 21.213c-.48 1.438-.105 3.023.965 4.094.762.764 1.785 1.172 2.828 1.172.422 0 .852-.066 1.266-.205l21.211-7.07c.59-.197 1.125-.527 1.562-.967l19.215-19.214zm44.426-109.941-1.415 1.415-8.484-8.485 1.414-1.414c2.336-2.34 6.148-2.34 8.484 0v.002c1.133 1.131 1.758 2.639 1.758 4.24s-.624 3.109-1.757 4.242z" data-original="#000000" class="active-path" data-old_color="#000000" fill="#D6D4D4CC"/><path d="m123.172 189.172-9.172 9.172v-6.344c0-2.209-1.789-4-4-4h-40c-2.211 0-4 1.791-4 4v40c0 2.209 1.789 4 4 4h40c2.211 0 4-1.791 4-4v-22.344l14.828-14.828c1.562-1.562 1.562-4.094 0-5.656s-4.094-1.563-5.656 0zm-17.172 38.828h-32v-32h32v10.344l-8 8-9.172-9.172c-1.562-1.562-4.094-1.562-5.656 0s-1.562 4.094 0 5.656l12 12c.781.781 1.805 1.172 2.828 1.172s2.047-.391 2.828-1.172l5.172-5.172z" data-original="#000000" class="active-path" data-old_color="#000000" fill="#D6D4D4CC"/><path d="m71.375 124h44c2.211 0 4-1.791 4-4 0-9.291-5.502-17.392-13.591-21.556 3.43-3.279 5.591-7.872 5.591-12.981 0-9.926-8.074-18-18-18s-18 8.074-18 18c0 5.109 2.162 9.702 5.591 12.981-8.09 4.164-13.591 12.265-13.591 21.556 0 2.209 1.789 4 4 4zm12-38.537c0-5.514 4.484-10 10-10s10 4.486 10 10-4.484 10-10 10-10-4.486-10-10zm10 18c8.426 0 15.516 5.344 17.469 12.537h-34.938c1.953-7.193 9.043-12.537 17.469-12.537z" data-original="#000000" class="active-path" data-old_color="#000000" fill="#D6D4D4CC"/><path d="m234 56c2.211 0 4-1.791 4-4v-8c0-2.209-1.789-4-4-4s-4 1.791-4 4v8c0 2.209 1.789 4 4 4z" data-original="#000000" class="active-path" data-old_color="#000000" fill="#D6D4D4CC"/><path d="m234 64c-2.211 0-4 1.791-4 4v8c0 2.209 1.789 4 4 4s4-1.791 4-4v-8c0-2.209-1.789-4-4-4z" data-original="#000000" class="active-path" data-old_color="#000000" fill="#D6D4D4CC"/><path d="m218 64h8c2.211 0 4-1.791 4-4s-1.789-4-4-4h-8c-2.211 0-4 1.791-4 4s1.789 4 4 4z" data-original="#000000" class="active-path" data-old_color="#000000" fill="#D6D4D4CC"/><path d="m250 56h-8c-2.211 0-4 1.791-4 4s1.789 4 4 4h8c2.211 0 4-1.791 4-4s-1.789-4-4-4z" data-original="#000000" class="active-path" data-old_color="#000000" fill="#D6D4D4CC"/><path d="m214.2 105.311c0 2.362 1.915 4.277 4.276 4.277 2.362 0 4.276-1.915 4.276-4.277s-1.914-4.276-4.276-4.276c-2.361-.001-4.276 1.914-4.276 4.276z" data-original="#000000" class="active-path" data-old_color="#000000" fill="#D6D4D4CC"/><path d="m134 84h36c2.211 0 4-1.791 4-4s-1.789-4-4-4h-36c-2.211 0-4 1.791-4 4s1.789 4 4 4z" data-original="#000000" class="active-path" data-old_color="#000000" fill="#D6D4D4CC"/><path d="m134 104h36c2.211 0 4-1.791 4-4s-1.789-4-4-4h-36c-2.211 0-4 1.791-4 4s1.789 4 4 4z" data-original="#000000" class="active-path" data-old_color="#000000" fill="#D6D4D4CC"/><path d="m134 124h36c2.211 0 4-1.791 4-4s-1.789-4-4-4h-36c-2.211 0-4 1.791-4 4s1.789 4 4 4z" data-original="#000000" class="active-path" data-old_color="#000000" fill="#D6D4D4CC"/><path d="m70 144h100c2.211 0 4-1.791 4-4s-1.789-4-4-4h-100c-2.211 0-4 1.791-4 4s1.789 4 4 4z" data-original="#000000" class="active-path" data-old_color="#000000" fill="#D6D4D4CC"/><path d="m70 168h100c2.211 0 4-1.791 4-4s-1.789-4-4-4h-100c-2.211 0-4 1.791-4 4s1.789 4 4 4z" data-original="#000000" class="active-path" data-old_color="#000000" fill="#D6D4D4CC"/></g></g> </svg>
