<?xml version="1.0"?>
<svg xmlns="http://www.w3.org/2000/svg" xmlns:xlink="http://www.w3.org/1999/xlink" version="1.1" id="Capa_1" x="0px" y="0px" viewBox="0 0 512 512" style="enable-background:new 0 0 512 512;" xml:space="preserve" width="512px" height="512px"><g><g>
	<g>
		<path d="M362.514,135.496c-17.124,0-31.056,13.931-31.056,31.054c0,14.54,10.045,26.772,23.559,30.135v51.808h-91.488v-51.808    c13.513-3.363,23.559-15.596,23.559-30.135c0-17.123-13.932-31.054-31.056-31.054c-17.125,0-31.056,13.931-31.056,31.054    c0,14.54,10.045,26.772,23.559,30.136v51.808h-91.488v-51.808c13.513-3.363,23.559-15.595,23.559-30.136    c0-17.123-13.931-31.054-31.055-31.054c-17.124,0-31.056,13.931-31.056,31.054c0,14.54,10.044,26.772,23.558,30.135v118.721    c-13.513,3.365-23.558,15.597-23.558,30.135c0,17.124,13.932,31.055,31.056,31.055c17.124,0,31.055-13.932,31.055-31.055    c0-14.539-10.045-26.772-23.559-30.135v-51.916h91.488v51.916c-13.513,3.364-23.559,15.596-23.559,30.135    c0,17.124,13.932,31.055,31.056,31.055s31.056-13.932,31.056-31.055c0-14.539-10.045-26.771-23.559-30.135v-51.917h98.986    c4.141,0,7.497-3.357,7.497-7.497v-59.306c13.513-3.364,23.558-15.596,23.558-30.135    C393.569,149.427,379.638,135.496,362.514,135.496z M165.609,345.541c0,8.856-7.204,16.06-16.06,16.06    c-8.856,0-16.061-7.205-16.061-16.06c0-8.855,7.205-16.06,16.061-16.06C158.405,329.48,165.609,336.686,165.609,345.541z     M149.549,182.612c-8.856,0-16.061-7.205-16.061-16.061c0-8.855,7.205-16.059,16.061-16.059c8.856,0,16.06,7.204,16.06,16.059    C165.609,175.406,158.405,182.612,149.549,182.612z M272.092,345.541c0,8.856-7.205,16.06-16.061,16.06    c-8.856,0-16.061-7.205-16.061-16.06c0-8.855,7.205-16.06,16.061-16.06S272.092,336.686,272.092,345.541z M256.031,182.612    c-8.856,0-16.061-7.205-16.061-16.061c0-8.855,7.205-16.059,16.061-16.059c8.856,0,16.061,7.204,16.061,16.059    C272.092,175.406,264.887,182.612,256.031,182.612z M362.514,182.612c-8.857,0-16.061-7.205-16.061-16.061    c0-8.855,7.205-16.059,16.061-16.059s16.06,7.204,16.06,16.059C378.574,175.406,371.37,182.612,362.514,182.612z" data-original="#000000" class="active-path" data-old_color="#000000" fill="#2B3542"/>
	</g>
</g><g>
	<g>
		<path d="M373.252,345.332c6.839-3.8,10.443-11.053,10.443-18.544c0-10.617-8.93-21.606-20.887-21.606h-28.808v63.917h14.764    v-20.616h9.633l12.244,20.616h16.655L373.252,345.332z M366.77,333.133c-2.379,3.119-3.147,2.476-18.006,2.476v-17.465    c14.195,0,14.974-0.65,17.735,2.34C369.498,323.735,369.233,329.909,366.77,333.133z" data-original="#000000" class="active-path" data-old_color="#000000" fill="#2B3542"/>
	</g>
</g><g>
	<g>
		<path d="M448.737,412.984c-3.125-2.715-7.861-2.381-10.576,0.745C345.794,520.084,184.162,524.858,85.69,426.387    C-36.877,303.817,6.668,96.504,166.134,32.423c3.842-1.543,5.705-5.91,4.161-9.752c-1.543-3.842-5.911-5.707-9.752-4.161    c-32.019,12.866-60.77,31.906-85.456,56.591c-100.007,100.01-100.016,261.869,0,361.888    C179.418,541.32,351.15,536.794,449.483,423.56C452.197,420.434,451.863,415.699,448.737,412.984z" data-original="#000000" class="active-path" data-old_color="#000000" fill="#2B3542"/>
	</g>
</g><g>
	<g>
		<path d="M194.871,7.481c-4.023,0.983-6.487,5.04-5.505,9.062c0.983,4.022,5.039,6.483,9.062,5.505    c152.383-37.21,298.5,78.085,298.5,233.997c0,46.547-13.212,91.608-38.208,130.312c-2.246,3.478-1.248,8.119,2.23,10.365    c3.481,2.248,8.121,1.246,10.365-2.23c26.566-41.133,40.606-89.007,40.606-138.448C511.923,90.884,357.261-32.169,194.871,7.481z" data-original="#000000" class="active-path" data-old_color="#000000" fill="#2B3542"/>
	</g>
</g><g>
	<g>
		<path d="M256.031,33.912c-122.485,0-222.134,99.648-222.134,222.134s99.649,222.134,222.134,222.134    s222.133-99.648,222.133-222.134S378.515,33.912,256.031,33.912z M256.031,463.184c-114.217,0-207.139-92.922-207.139-207.139    S141.814,48.906,256.031,48.906c114.216,0,207.138,92.922,207.138,207.139S370.247,463.184,256.031,463.184z" data-original="#000000" class="active-path" data-old_color="#000000" fill="#2B3542"/>
	</g>
</g></g> </svg>
